<svg xmlns="http://www.w3.org/2000/svg" viewBox="0 0 100 100"><circle cx="50" cy="50" r="50" fill="#F0D5B8"/><path d="M50 58c-14 0-25 10-27 23a50 50 0 0054 0c-2-13-13-23-27-23z" fill="#1E40AF"/><circle cx="50" cy="40" r="18" fill="#F0D5B8"/><path d="M33 30c1-10 8-18 17-18s16 8 17 18c0 0-3-8-17-8s-17 8-17 8z" fill="#4A3728"/><circle cx="42" cy="38" r="2" fill="#333"/><circle cx="58" cy="38" r="2" fill="#333"/><path d="M46 46c2 2 6 2 8 0" stroke="#333" stroke-width="1.5" fill="none" stroke-linecap="round"/></svg>