<svg xmlns="http://www.w3.org/2000/svg" viewBox="0 0 100 100"><circle cx="50" cy="50" r="50" fill="#C68642"/><path d="M50 58c-14 0-25 10-27 23a50 50 0 0054 0c-2-13-13-23-27-23z" fill="#059669"/><circle cx="50" cy="40" r="18" fill="#C68642"/><path d="M34 28c2-8 8-14 16-14s14 6 16 14c-2-4-8-6-16-6s-14 2-16 6z" fill="#1a1a2e"/><circle cx="42" cy="38" r="2" fill="#333"/><circle cx="58" cy="38" r="2" fill="#333"/><path d="M46 46c2 2 6 2 8 0" stroke="#333" stroke-width="1.5" fill="none" stroke-linecap="round"/></svg>