<svg xmlns="http://www.w3.org/2000/svg" viewBox="0 0 100 100"><circle cx="50" cy="50" r="50" fill="#F5D6B8"/><path d="M50 58c-14 0-25 10-27 23a50 50 0 0054 0c-2-13-13-23-27-23z" fill="#6366F1"/><circle cx="50" cy="40" r="18" fill="#F5D6B8"/><path d="M32 32c0-12 8-22 18-22s18 10 18 22c-2-6-8-10-18-10s-16 4-18 10z" fill="#92400E"/><circle cx="42" cy="38" r="2" fill="#333"/><circle cx="58" cy="38" r="2" fill="#333"/><path d="M46 46c2 2 6 2 8 0" stroke="#333" stroke-width="1.5" fill="none" stroke-linecap="round"/><path d="M38 52c0 0 4 4 12 4s12-4 12-4" stroke="#333" stroke-width="0" fill="none"/></svg>