<svg xmlns="http://www.w3.org/2000/svg" viewBox="0 0 100 100"><circle cx="50" cy="50" r="50" fill="#FDEBD0"/><path d="M50 58c-14 0-25 10-27 23a50 50 0 0054 0c-2-13-13-23-27-23z" fill="#EC4899"/><circle cx="50" cy="40" r="18" fill="#FDEBD0"/><path d="M30 28c2-10 10-18 20-18s18 8 20 18c0 0-5-4-10-4-3 0-5 2-10 2s-7-2-10-2c-5 0-10 4-10 4z" fill="#1a1a2e"/><path d="M28 30c0 0 2 14 6 16" stroke="#1a1a2e" stroke-width="3" fill="none"/><path d="M72 30c0 0-2 14-6 16" stroke="#1a1a2e" stroke-width="3" fill="none"/><circle cx="42" cy="38" r="2" fill="#333"/><circle cx="58" cy="38" r="2" fill="#333"/><path d="M46 46c2 2 6 2 8 0" stroke="#333" stroke-width="1.5" fill="none" stroke-linecap="round"/></svg>