<svg xmlns="http://www.w3.org/2000/svg" viewBox="0 0 100 100"><circle cx="50" cy="50" r="50" fill="#F8D9C0"/><path d="M50 58c-14 0-25 10-27 23a50 50 0 0054 0c-2-13-13-23-27-23z" fill="#3B82F6"/><circle cx="50" cy="40" r="18" fill="#F8D9C0"/><path d="M32 32c0-12 8-20 18-20s18 8 18 20c0 2-1 3-2 3h-4c-1-6-5-8-12-8s-11 2-12 8h-4c-1 0-2-1-2-3z" fill="#8B5E3C"/><circle cx="42" cy="38" r="2" fill="#333"/><circle cx="58" cy="38" r="2" fill="#333"/><path d="M46 46c2 2 6 2 8 0" stroke="#333" stroke-width="1.5" fill="none" stroke-linecap="round"/></svg>