<svg xmlns="http://www.w3.org/2000/svg" viewBox="0 0 100 100"><circle cx="50" cy="50" r="50" fill="#D4A574"/><path d="M50 58c-14 0-25 10-27 23a50 50 0 0054 0c-2-13-13-23-27-23z" fill="#8B5CF6"/><circle cx="50" cy="40" r="18" fill="#D4A574"/><path d="M30 35c0-14 9-25 20-25s20 11 20 25c-3-8-10-12-20-12s-17 4-20 12z" fill="#2D1B0E"/><circle cx="42" cy="38" r="2" fill="#333"/><circle cx="58" cy="38" r="2" fill="#333"/><path d="M46 46c2 2 6 2 8 0" stroke="#333" stroke-width="1.5" fill="none" stroke-linecap="round"/></svg>